<svg id="Layer_6" data-name="Layer 6" xmlns="http://www.w3.org/2000/svg" xmlns:xlink="http://www.w3.org/1999/xlink" viewBox="0 0 1080 1080"><defs><linearGradient id="linear-gradient" x1="332.48" y1="483.62" x2="600.48" y2="483.62" gradientTransform="matrix(0.98, -0.19, 0.19, 0.98, -153.01, 111.69)" gradientUnits="userSpaceOnUse"><stop offset="0"/><stop offset="1" stop-color="#231f20"/></linearGradient><linearGradient id="linear-gradient-2" x1="332.48" y1="591.61" x2="519.43" y2="591.61" gradientTransform="matrix(0.98, -0.19, 0.19, 0.98, -153.01, 111.69)" gradientUnits="userSpaceOnUse"><stop offset="0" stop-color="#fff"/><stop offset="1"/></linearGradient><linearGradient id="linear-gradient-3" x1="480.5" y1="669.38" x2="480.5" y2="711.63" gradientTransform="matrix(0.98, -0.19, 0.19, 0.98, -153.01, 111.69)" gradientUnits="userSpaceOnUse"><stop offset="0" stop-color="#fff"/><stop offset="1" stop-color="#231f20"/></linearGradient><linearGradient id="linear-gradient-4" x1="695.11" y1="547.93" x2="1062.71" y2="475.5" gradientUnits="userSpaceOnUse"><stop offset="0" stop-color="#bcbec0"/><stop offset="0.12" stop-color="#d4d6d7"/><stop offset="0.26" stop-color="#e7e8e9"/><stop offset="0.42" stop-color="#f5f5f5"/><stop offset="0.62" stop-color="#fdfdfd"/><stop offset="1" stop-color="#fff"/></linearGradient><linearGradient id="linear-gradient-5" x1="599.81" y1="456.89" x2="600.48" y2="456.89" xlink:href="#linear-gradient"/></defs><title>Kuya Drei Logo</title><polyline points="524.46 443.85 519.48 473.38 274.99 547.56 271.18 544.68 275.78 518 523.81 444.05" fill="url(#linear-gradient)"/><g id="Layer_7" data-name="Layer 7"><polygon points="275.78 518 486.02 668.03 480.17 702.12 271.18 544.68 275.78 518" fill="url(#linear-gradient-2)"/></g><g id="Layer_9" data-name="Layer 9"><polyline points="524.46 443.85 483.64 418.94 177.84 509.46 418.15 692.73 486.02 668.03 275.78 518 524.46 443.85" fill="#a3a3a3"/></g><g id="Layer_10" data-name="Layer 10"><polygon points="418.15 692.73 486.02 668.03 480.17 702.12 417.81 724.54 418.15 692.73" fill="url(#linear-gradient-3)"/></g><g id="Layer_11" data-name="Layer 11"><polygon points="177.84 509.46 184.62 544.82 417.81 724.54 418.15 692.73 177.84 509.46"/></g><text transform="translate(499.18 751.99) rotate(-11.15)" font-size="504.08" font-family="MyriadPro-Regular, Myriad Pro">/</text><g id="Layer_8" data-name="Layer 8"><path d="M603.52,379.49,883.26,591.36l-16.19,68.69L535.76,765.81ZM837.8,601.79,626.2,443.22,586.6,674.78l-5.85,34.44,252.39-79.36Z" fill="url(#linear-gradient-4)"/></g><text transform="matrix(0.99, 0.17, -0.17, 0.99, 547.81, 703.57)" font-size="507.32" font-family="MyriadPro-Regular, Myriad Pro">&gt;</text><line x1="523.81" y1="444.04" x2="524.46" y2="443.85" fill="url(#linear-gradient-5)"/></svg>